<?xml version="1.0" encoding="UTF-8"?>
<svg width="1730px" height="671px" viewBox="0 0 1730 671" version="1.1" xmlns="http://www.w3.org/2000/svg" xmlns:xlink="http://www.w3.org/1999/xlink">
    <title>bg_contactus4</title>
    <g id="bg_contactus4" stroke="none" stroke-width="1" fill="none" fill-rule="evenodd">
        <g id="Group-3-Copy" transform="translate(864.890009, 127.526018) rotate(-90.000000) translate(-864.890009, -127.526018) translate(444.140009, -737.723982)" fill-rule="nonzero">
            <path d="M256.5,1 C337.13288,1 402.5,66.36712 402.5,147 L256.5,147 L256.5,1 Z" id="Shape" fill="#2D3652" transform="translate(329.500000, 74.000000) rotate(-270.000000) translate(-329.500000, -74.000000) "></path>
            <g id="Group-2" transform="translate(296.575053, 1.000000)">
                <path d="M105.924947,366 L179.091613,366 C219.5001,366 252.25828,333.226896 252.25828,292.8 L252.25828,292.8 L179.091613,292.8 C138.683127,292.8 105.924947,325.573104 105.924947,366 L105.924947,366 Z" id="Shape" fill="#2D3652"></path>
                <path d="M105.924947,0 L105.924947,146.4 C105.924947,227.253792 171.441307,292.8 252.25828,292.8 L252.25828,292.8 L252.25828,146.4 C252.25828,65.546208 186.74192,0 105.924947,0 L105.924947,0 Z" id="Shape" fill="#DA5497"></path>
                <path d="M179.091613,146.904828 L179.091613,219.483632 C179.091613,259.974796 211.849793,292.8 252.25828,292.8 L252.25828,292.8 L252.25828,220.221195 C252.25828,179.728565 219.5001,146.904828 179.091613,146.904828 L179.091613,146.904828 Z" id="Shape" fill="#2D3652"></path>
                <path d="M86.3338716,1437.00046 L169.296076,1437.00046 C215.114442,1437.00046 252.25828,1399.8397 252.25828,1354.00046 L252.25828,1354.00046 L169.296076,1354.00046 C123.47771,1354.00046 86.3338716,1391.16122 86.3338716,1437.00046 L86.3338716,1437.00046 Z" id="Shape-Copy-2" fill="#2D3652"></path>
                <path d="M2.05346851e-12,1265.78802 L2.05346851e-12,1351.35326 C2.05346851e-12,1399.08945 38.6195572,1437.78802 86.2582802,1437.78802 L86.2582802,1437.78802 L86.2582802,1352.22279 C86.2582802,1304.48487 47.638723,1265.78802 2.05346851e-12,1265.78802 L2.05346851e-12,1265.78802 Z" id="Shape-Copy" fill="#2D3652"></path>
            </g>
            <path d="M553.5,513 C553.5,553.31644 520.81644,586 480.5,586 C440.18356,586 407.5,553.31644 407.5,513 C407.5,472.68356 440.18356,440 480.5,440 L553.5,440 L553.5,513 Z" id="Shape" fill="#F4F4F5"></path>
            <path d="M548.5,905 L548.5,905 C493.270588,905 448.5,860.229412 448.5,805 L448.5,805 L548.5,805 L548.5,905 Z" id="Shape" fill="#4E80EE"></path>
            <path d="M475.869046,904 C435.348789,904 402.5,936.68356 402.5,977 L475.130954,977 C515.652678,977 548.5,944.31644 548.5,904 L475.869046,904 Z" id="Shape" fill="#DA5497"></path>
            <path d="M475.869046,586 C435.348789,586 402.5,618.68356 402.5,659 L475.130954,659 C515.652678,659 548.5,626.31644 548.5,586 L475.869046,586 Z" id="Shape-Copy-3" fill="#DA5497" transform="translate(475.500000, 622.500000) scale(1, -1) translate(-475.500000, -622.500000) "></path>
            <path d="M329.5,440 L402.5,440 C442.81644,440 475.5,407.31644 475.5,367 L475.5,367 L402.5,367 C362.18356,367 329.5,399.68356 329.5,440 L329.5,440 Z" id="Shape" fill="#4E80EE"></path>
            <path d="M329.5,147 C369.81644,147 402.5,179.68356 402.5,220 C402.5,260.31644 369.81644,293 329.5,293 C289.18356,293 256.5,260.31644 256.5,220 C256.5,179.68356 289.18356,147 329.5,147 Z" id="Shape" fill="#F4F4F5"></path>
            <path d="M287.5,220.5 C287.5,198.133001 305.633001,180 328,180 L328,180 C350.366999,180 368.5,198.133001 368.5,220.5 L368.5,220.5 C368.5,242.866999 350.366999,261 328,261 L328,261 C305.633001,261 287.5,242.866999 287.5,220.5 L287.5,220.5 Z" id="Shape" fill="#2D3652"></path>
            <path d="M256.5,0 L256.5,73 C256.5,113.31644 223.816739,146 183.5,146 L183.5,146 L183.5,73 C183.5,32.68356 216.183276,0 256.5,0 L256.5,0 Z" id="Shape" fill="#4E80EE"></path>
            <path d="M215.5,1621 L215.5,1694 C215.5,1734.31644 182.816739,1767 142.5,1767 L142.5,1767 L142.5,1694 C142.5,1653.68356 175.183276,1621 215.5,1621 L215.5,1621 Z" id="Shape-Copy-7" fill="#4E80EE" transform="translate(179.000000, 1694.000000) rotate(90.000000) translate(-179.000000, -1694.000000) "></path>
            <path d="M109.5,-36 L109.5,36.6309537 C109.5,77.1512106 76.81644,110 36.5,110 L36.5,110 L36.5,37.3690463 C36.5,-3.15267797 69.18356,-36 109.5,-36 L109.5,-36 Z" id="Shape" fill="#F4F4F5" transform="translate(73.000000, 37.000000) scale(1, -1) rotate(90.000000) translate(-73.000000, -37.000000) "></path>
            <path d="M397.5,404 L397.5,476.630954 C397.5,517.151211 364.81644,550 324.5,550 L324.5,550 L324.5,477.369046 C324.5,436.847322 357.18356,404 397.5,404 L397.5,404 Z" id="Shape-Copy-9" fill="#F4F4F5" transform="translate(361.000000, 477.000000) scale(1, -1) rotate(90.000000) translate(-361.000000, -477.000000) "></path>
            <path d="M435.5,513 C435.5,501.954074 444.454074,493 455.5,493 C466.545926,493 475.5,501.954074 475.5,513 C475.5,524.045926 466.545926,533 455.5,533 C444.454074,533 435.5,524.045926 435.5,513 Z" id="Shape" fill="#DA5497"></path>
            <path d="M351.5,334 C351.5,321.850133 361.350133,312 373.5,312 L373.5,312 C385.649867,312 395.5,321.850133 395.5,334 L395.5,334 C395.5,346.149867 385.649867,356 373.5,356 L373.5,356 C361.350133,356 351.5,346.149867 351.5,334 L351.5,334 Z" id="Shape" fill="#4E80EE"></path>
            <path d="M490.5,403 C490.5,391.954074 499.45437,383 510.5,383 L510.5,383 C521.54563,383 530.5,391.954074 530.5,403 L530.5,403 C530.5,414.045926 521.54563,423 510.5,423 L510.5,423 C499.45437,423 490.5,414.045926 490.5,403 L490.5,403 Z" id="Shape" fill="#DA5497"></path>
            <path d="M307.5,825 C307.5,813.954074 316.45437,805 327.5,805 L327.5,805 C338.54563,805 347.5,813.954074 347.5,825 L347.5,825 C347.5,836.045926 338.54563,845 327.5,845 L327.5,845 C316.45437,845 307.5,836.045926 307.5,825 L307.5,825 Z" id="Shape-Copy-8" fill="#DA5497"></path>
            <path d="M192.5,1638 C192.5,1626.95407 201.45437,1618 212.5,1618 L212.5,1618 C223.54563,1618 232.5,1626.95407 232.5,1638 L232.5,1638 C232.5,1649.04593 223.54563,1658 212.5,1658 L212.5,1658 C201.45437,1658 192.5,1649.04593 192.5,1638 L192.5,1638 Z" id="Shape-Copy-5" fill="#DA5497"></path>
            <path d="M247.5,1170 C247.5,1158.95407 256.45437,1150 267.5,1150 L267.5,1150 C278.54563,1150 287.5,1158.95407 287.5,1170 L287.5,1170 C287.5,1181.04593 278.54563,1190 267.5,1190 L267.5,1190 C256.45437,1190 247.5,1181.04593 247.5,1170 L247.5,1170 Z" id="Shape-Copy-4" fill="#DA5497"></path>
        </g>
        <rect id="Rectangle" fill="#4E80EE" x="1265" y="-21" width="92" height="142"></rect>
        <path d="M804.640009,72.7760183 C804.640009,32.4595783 771.956449,-0.223981739 731.640009,-0.223981739 L731.640009,-0.223981739 C691.323569,-0.223981739 658.640009,32.4595783 658.640009,72.7760183 L658.640009,72.7760183 C658.640009,113.092458 691.323569,145.776018 731.640009,145.776018 L804.640009,145.776018 L804.640009,72.7760183 Z" id="Shape" fill="#2D3652" fill-rule="nonzero" transform="translate(731.640009, 72.776018) scale(-1, 1) rotate(-90.000000) translate(-731.640009, -72.776018) "></path>
        <path d="M976.640009,183.776756 C976.640009,204.762876 993.653151,221.776018 1014.64075,221.776018 L1014.64075,221.776018 C1035.62687,221.776018 1052.64001,204.762876 1052.64001,183.776756 L1052.64001,183.776756 C1052.64001,162.78916 1035.62687,145.776018 1014.64075,145.776018 L976.640009,145.776018 L976.640009,183.776756 Z" id="Shape" fill="#2D3652" fill-rule="nonzero"></path>
        <path d="M976.640009,183.775281 C976.640009,162.78916 959.626868,145.776018 938.639272,145.776018 L938.639272,145.776018 C917.653151,145.776018 900.640009,162.78916 900.640009,183.775281 L900.640009,183.775281 C900.640009,204.762876 917.653151,221.776018 938.639272,221.776018 L976.640009,221.776018 L976.640009,183.775281 Z" id="Shape" fill="#DA5497" fill-rule="nonzero" transform="translate(938.640009, 183.776018) rotate(-90.000000) translate(-938.640009, -183.776018) "></path>
        <path d="M976.640009,72.7760183 C976.640009,113.092458 1009.32357,145.776018 1049.64001,145.776018 L1049.64001,145.776018 C1089.95645,145.776018 1122.64001,113.092458 1122.64001,72.7760183 L1122.64001,72.7760183 C1122.64001,32.4595783 1089.95645,-0.223981739 1049.64001,-0.223981739 L976.640009,-0.223981739 L976.640009,72.7760183 Z" id="Shape" fill="#4E80EE" fill-rule="nonzero" transform="translate(1049.640009, 72.776018) rotate(-90.000000) translate(-1049.640009, -72.776018) "></path>
        <path d="M1122.64001,72.7760183 C1122.64001,32.4595783 1155.32357,-0.223981739 1195.64001,-0.223981739 L1195.64001,-0.223981739 C1235.95645,-0.223981739 1268.64001,32.4595783 1268.64001,72.7760183 L1268.64001,72.7760183 C1268.64001,113.092458 1235.95645,145.776018 1195.64001,145.776018 L1122.64001,145.776018 L1122.64001,72.7760183 Z" id="Shape" fill="#DA5497" fill-rule="nonzero" transform="translate(1195.640009, 72.776018) rotate(-180.000000) translate(-1195.640009, -72.776018) "></path>
        <path d="M1545.64001,273.775281 C1545.64001,252.78916 1562.65315,235.776018 1583.64075,235.776018 C1604.62687,235.776018 1621.64001,252.78916 1621.64001,273.775281 C1621.64001,294.762876 1604.62687,311.776018 1583.64075,311.776018 L1545.64001,311.776018 L1545.64001,273.775281 Z" id="Shape" fill="#2D3652" fill-rule="nonzero" transform="translate(1583.640009, 273.776018) rotate(-90.000000) translate(-1583.640009, -273.776018) "></path>
        <path d="M620.640009,255.775281 C620.640009,234.78916 637.653151,217.776018 658.640747,217.776018 L658.640747,217.776018 C679.626868,217.776018 696.640009,234.78916 696.640009,255.775281 L696.640009,255.775281 C696.640009,276.762876 679.626868,293.776018 658.640747,293.776018 L620.640009,293.776018 L620.640009,255.775281 Z" id="Shape-Copy-6" fill="#2D3652" fill-rule="nonzero" transform="translate(658.640009, 255.776018) rotate(-90.000000) translate(-658.640009, -255.776018) "></path>
        <path d="M1803.14001,74.2760183 L1656.64001,74.2760183 C1575.73099,74.2760183 1510.14001,139.643138 1510.14001,220.276018 L1510.14001,220.276018 L1656.64001,220.276018 C1737.54903,220.276018 1803.14001,154.908898 1803.14001,74.2760183 L1803.14001,74.2760183 Z" id="Shape" fill="#F0F1F1" fill-rule="nonzero" transform="translate(1656.640009, 147.276018) rotate(90.000000) translate(-1656.640009, -147.276018) "></path>
        <path d="M1619.50906,37.2760183 C1578.9888,37.2760183 1546.14001,69.9595783 1546.14001,110.276018 L1618.77096,110.276018 C1659.29269,110.276018 1692.14001,77.5924583 1692.14001,37.2760183 L1619.50906,37.2760183 Z" id="Shape" fill="#2D3652" fill-rule="nonzero" transform="translate(1619.140009, 73.776018) rotate(90.000000) translate(-1619.140009, -73.776018) "></path>
        <path d="M1364.14001,74.2760183 L1510.64001,74.2760183 C1591.54903,74.2760183 1657.14001,139.643138 1657.14001,220.276018 L1657.14001,220.276018 L1510.64001,220.276018 C1429.73099,220.276018 1364.14001,154.908898 1364.14001,74.2760183 L1364.14001,74.2760183 Z" id="Shape" fill="#2D3652" fill-rule="nonzero" transform="translate(1510.640009, 147.276018) rotate(90.000000) translate(-1510.640009, -147.276018) "></path>
        <path d="M1257.64001,120.776018 C1257.64001,92.0564183 1280.92041,68.7760183 1309.64001,68.7760183 L1309.64001,68.7760183 C1338.35961,68.7760183 1361.64001,92.0564183 1361.64001,120.776018 L1361.64001,120.776018 C1361.64001,149.495618 1338.35961,172.776018 1309.64001,172.776018 L1309.64001,172.776018 C1280.92041,172.776018 1257.64001,149.495618 1257.64001,120.776018 L1257.64001,120.776018 Z" id="Shape" fill="#DA5497" fill-rule="nonzero" transform="translate(1309.640009, 120.776018) rotate(-90.000000) translate(-1309.640009, -120.776018) "></path>
        <path d="M1279.64001,120.776018 C1279.64001,104.208018 1293.07201,90.7760183 1309.64001,90.7760183 L1309.64001,90.7760183 C1326.20801,90.7760183 1339.64001,104.208018 1339.64001,120.776018 L1339.64001,120.776018 C1339.64001,137.344018 1326.20801,150.776018 1309.64001,150.776018 L1309.64001,150.776018 C1293.07201,150.776018 1279.64001,137.344018 1279.64001,120.776018 L1279.64001,120.776018 Z" id="Shape" fill="#2D3652" fill-rule="nonzero" transform="translate(1309.640009, 120.776018) rotate(-90.000000) translate(-1309.640009, -120.776018) "></path>
        <path d="M994.640009,105.776018 C994.640009,93.6261516 1004.49014,83.7760183 1016.64001,83.7760183 L1016.64001,83.7760183 C1028.78988,83.7760183 1038.64001,93.6261516 1038.64001,105.776018 L1038.64001,105.776018 C1038.64001,117.925885 1028.78988,127.776018 1016.64001,127.776018 L1016.64001,127.776018 C1004.49014,127.776018 994.640009,117.925885 994.640009,105.776018 L994.640009,105.776018 Z" id="Shape" fill="#DA5497" fill-rule="nonzero" transform="translate(1016.640009, 105.776018) rotate(-90.000000) translate(-1016.640009, -105.776018) "></path>
        <path d="M1401.14001,185.276018 L1473.77096,185.276018 C1514.29122,185.276018 1547.14001,217.959578 1547.14001,258.276018 L1547.14001,258.276018 L1474.50906,258.276018 C1433.98733,258.276018 1401.14001,225.592458 1401.14001,185.276018 L1401.14001,185.276018 Z" id="Shape" fill="#4E80EE" fill-rule="nonzero" transform="translate(1474.140009, 221.776018) rotate(-90.000000) translate(-1474.140009, -221.776018) "></path>
    </g>
</svg>