<?xml version="1.0" encoding="UTF-8"?>
<svg width="736px" height="507px" viewBox="0 0 736 507" version="1.1" xmlns="http://www.w3.org/2000/svg" xmlns:xlink="http://www.w3.org/1999/xlink">
    <title>example-17</title>
    <g id="example-17" stroke="none" stroke-width="1" fill="none" fill-rule="evenodd">
        <g id="Group-3" transform="translate(122.000000, 0.000000)" fill-rule="nonzero">
            <path d="M583.553719,50.7438017 C583.553719,22.7190149 560.834704,0 532.809917,0 L532.809917,0 C504.785131,0 482.066116,22.7190149 482.066116,50.7438017 L482.066116,50.7438017 C482.066116,78.7685884 504.785131,101.487603 532.809917,101.487603 L583.553719,101.487603 L583.553719,50.7438017 Z" id="Shape" fill="#F4F4F5"></path>
            <path d="M583.553719,75.1003142 C583.553719,60.5277858 571.739983,48.7140496 557.16643,48.7140496 L557.16643,48.7140496 C542.593902,48.7140496 530.780165,60.5277858 530.780165,75.1003142 L530.780165,75.1003142 C530.780165,89.6738671 542.593902,101.487603 557.16643,101.487603 L583.553719,101.487603 L583.553719,75.1003142 Z" id="Shape" fill="#DA5497"></path>
            <path d="M380.578512,50.7438017 C380.578512,78.7685884 403.297527,101.487603 431.322314,101.487603 L431.322314,101.487603 C459.347101,101.487603 482.066116,78.7685884 482.066116,50.7438017 L482.066116,50.7438017 C482.066116,22.7190149 459.347101,0 431.322314,0 L380.578512,0 L380.578512,50.7438017 Z" id="Shape" fill="#4E80EE"></path>
            <path d="M380.578512,26.3872891 C380.578512,40.9598175 392.392249,52.7735537 406.965801,52.7735537 L406.965801,52.7735537 C421.53833,52.7735537 433.352066,40.9598175 433.352066,26.3872891 L433.352066,26.3872891 C433.352066,11.8137362 421.53833,0 406.965801,0 L380.578512,0 L380.578512,26.3872891 Z" id="Shape" fill="#2D3652"></path>
            <path d="M181.662767,0.0529357044 C237.712427,0.0529357044 283.150456,45.4909655 283.150456,101.540539 L181.662767,101.540539 L181.662767,0.0529357044 Z" id="Shape" fill="#DA5497" transform="translate(232.406612, 50.796737) rotate(-270.000000) translate(-232.406612, -50.796737) "></path>
            <g id="Group-2" transform="translate(279.090909, 0.000000)">
                <path d="M0,253.719008 L50.7438017,253.719008 C78.7685884,253.719008 101.487603,230.999993 101.487603,202.975207 L101.487603,202.975207 L50.7438017,202.975207 C22.7190149,202.975207 0,225.694221 0,253.719008 L0,253.719008 Z" id="Shape" fill="#2D3652"></path>
                <path d="M0,0 L0,101.487603 C0,157.537177 45.4380298,202.975207 101.487603,202.975207 L101.487603,202.975207 L101.487603,101.487603 C101.487603,45.4380298 56.0495736,0 0,0 L0,0 Z" id="Shape" fill="#DA5497"></path>
                <path d="M50.7438017,101.837561 L50.7438017,152.150737 C50.7438017,180.220075 73.4628165,202.975207 101.487603,202.975207 L101.487603,202.975207 L101.487603,152.662031 C101.487603,124.591676 78.7685884,101.837561 50.7438017,101.837561 L50.7438017,101.837561 Z" id="Shape" fill="#2D3652"></path>
                <path d="M304.46281,101.487603 L202.975207,101.487603 C146.925633,101.487603 101.487603,146.925633 101.487603,202.975207 L101.487603,202.975207 L202.975207,202.975207 C259.02478,202.975207 304.46281,157.537177 304.46281,101.487603 L304.46281,101.487603 Z" id="Shape" fill="#2D3652"></path>
                <path d="M202.975207,152.231405 L152.487937,152.231405 C124.321473,152.231405 101.487603,174.95042 101.487603,202.975207 L101.487603,202.975207 L151.974873,202.975207 C180.142357,202.975207 202.975207,180.256192 202.975207,152.231405 L202.975207,152.231405 Z" id="Shape" fill="#F0F1F1"></path>
            </g>
            <path d="M383.62314,253.692519 C383.62314,225.667732 406.342155,202.948717 434.366942,202.948717 L434.366942,202.948717 C462.391729,202.948717 485.110744,225.667732 485.110744,253.692519 L485.110744,253.692519 C485.110744,281.717306 462.391729,304.43632 434.366942,304.43632 L383.62314,304.43632 L383.62314,253.692519 Z" id="Shape" fill="#DA5497"></path>
            <path d="M383.62314,278.049031 C383.62314,263.476503 395.436877,251.662767 410.01043,251.662767 L410.01043,251.662767 C424.582958,251.662767 436.396694,263.476503 436.396694,278.049031 L436.396694,278.049031 C436.396694,292.622584 424.582958,304.43632 410.01043,304.43632 L383.62314,304.43632 L383.62314,278.049031 Z" id="Shape" fill="#2D3652"></path>
            <path d="M383.636385,355.180122 C383.636385,383.204909 360.91737,405.923924 332.892584,405.923924 C304.867797,405.923924 282.148782,383.204909 282.148782,355.180122 C282.148782,327.155335 304.867797,304.43632 332.892584,304.43632 L383.636385,304.43632 L383.636385,355.180122 Z" id="Shape" fill="#F4F4F5"></path>
            <path d="M485.07101,202.975207 C541.120583,202.975207 586.558613,248.413236 586.558613,304.46281 L485.07101,304.46281 L485.07101,202.975207 Z" id="Shape" fill="#2D3652"></path>
            <path d="M586.558613,304.46281 L485.07101,304.46281 C429.021436,304.46281 383.583406,349.90084 383.583406,405.950413 L383.583406,405.950413 L485.07101,405.950413 C541.120583,405.950413 586.558613,360.512383 586.558613,304.46281 L586.558613,304.46281 Z" id="Shape" fill="#F0F1F1"></path>
            <path d="M485.07101,355.206612 L434.58374,355.206612 C406.417276,355.206612 383.583406,377.925626 383.583406,405.950413 L383.583406,405.950413 L434.070676,405.950413 C462.23816,405.950413 485.07101,383.231398 485.07101,355.206612 L485.07101,355.206612 Z" id="Shape" fill="#2D3652"></path>
            <path d="M383.583406,404.948782 L485.07101,404.948782 C541.120583,404.948782 586.558613,450.386812 586.558613,506.436385 L586.558613,506.436385 L485.07101,506.436385 C429.021436,506.436385 383.583406,460.998355 383.583406,404.948782 L383.583406,404.948782 Z" id="Shape" fill="#2D3652"></path>
            <path d="M485.07101,455.694215 L535.55828,455.694215 C563.724744,455.694215 586.558613,478.41323 586.558613,506.438017 L586.558613,506.438017 L536.071343,506.438017 C507.903859,506.438017 485.07101,483.719002 485.07101,455.694215 L485.07101,455.694215 Z" id="Shape" fill="#4E80EE"></path>
            <path d="M284.165289,457.709091 L284.165289,457.709091 C255.579276,457.709091 232.406612,434.536426 232.406612,405.950413 L232.406612,405.950413 L284.165289,405.950413 L284.165289,457.709091 Z" id="Shape" fill="#4E80EE"></path>
            <path d="M232.406612,355.206612 L181.919342,355.206612 C153.752878,355.206612 130.919008,377.925626 130.919008,405.950413 L130.919008,405.950413 L181.406278,405.950413 C209.573762,405.950413 232.406612,383.231398 232.406612,355.206612 L232.406612,355.206612 Z" id="Shape" fill="#DA5497"></path>
            <path d="M228.347107,304.46281 L279.090909,304.46281 C307.115696,304.46281 329.834711,281.743795 329.834711,253.719008 L329.834711,253.719008 L279.090909,253.719008 C251.066122,253.719008 228.347107,276.438023 228.347107,304.46281 L228.347107,304.46281 Z" id="Shape" fill="#4E80EE"></path>
            <path d="M228.400086,101.487603 C256.424873,101.487603 279.143888,124.206618 279.143888,152.231405 C279.143888,180.256192 256.424873,202.975207 228.400086,202.975207 C200.3753,202.975207 177.656285,180.256192 177.656285,152.231405 C177.656285,124.206618 200.3753,101.487603 228.400086,101.487603 Z" id="Shape" fill="#F4F4F5"></path>
            <path d="M199.983557,152.738843 C199.983557,137.325445 212.47925,124.829752 227.892648,124.829752 L227.892648,124.829752 C243.306046,124.829752 255.801739,137.325445 255.801739,152.738843 L255.801739,152.738843 C255.801739,168.152241 243.306046,180.647934 227.892648,180.647934 L227.892648,180.647934 C212.47925,180.647934 199.983557,168.152241 199.983557,152.738843 L199.983557,152.738843 Z" id="Shape" fill="#2D3652"></path>
            <path d="M181.66281,0.0529788467 L181.66281,50.7967805 C181.66281,78.8215673 158.944003,101.540582 130.919008,101.540582 L130.919008,101.540582 L130.919008,50.7967805 C130.919008,22.7719937 153.637826,0.0529788467 181.66281,0.0529788467 L181.66281,0.0529788467 Z" id="Shape" fill="#4E80EE"></path>
            <path d="M76.1157456,-25.3189651 L76.1157456,25.1683049 C76.1157456,53.3347689 53.3966445,76.1686382 25.3718577,76.1686382 L25.3718577,76.1686382 L25.3718577,25.6813682 C25.3718577,-2.48611589 48.0908726,-25.3189651 76.1157456,-25.3189651 L76.1157456,-25.3189651 Z" id="Shape" fill="#F4F4F5" transform="translate(50.743802, 25.424837) scale(1, -1) rotate(90.000000) translate(-50.743802, -25.424837) "></path>
            <path d="M367.385124,481.558678 C367.385124,473.991762 373.519035,467.857851 381.08595,467.857851 C388.652866,467.857851 394.786777,473.991762 394.786777,481.558678 C394.786777,489.125593 388.652866,495.259504 381.08595,495.259504 C373.519035,495.259504 367.385124,489.125593 367.385124,481.558678 Z" id="Shape" fill="#DA5497"></path>
            <path d="M553.107438,405.950413 C553.107438,389.134932 566.738238,375.504132 583.553719,375.504132 L583.553719,375.504132 C600.3692,375.504132 614,389.134932 614,405.950413 L614,405.950413 C614,422.765894 600.3692,436.396694 583.553719,436.396694 L583.553719,436.396694 C566.738238,436.396694 553.107438,422.765894 553.107438,405.950413 L553.107438,405.950413 Z" id="Shape" fill="#DA5497"></path>
            <path d="M568.330579,405.950413 C568.330579,397.54318 575.146486,390.727273 583.553719,390.727273 L583.553719,390.727273 C591.960952,390.727273 598.77686,397.54318 598.77686,405.950413 L598.77686,405.950413 C598.77686,414.357646 591.960952,421.173554 583.553719,421.173554 L583.553719,421.173554 C575.146486,421.173554 568.330579,414.357646 568.330579,405.950413 L568.330579,405.950413 Z" id="Shape" fill="#2D3652"></path>
            <path d="M557.166942,200.945455 C557.166942,192.538221 563.98285,185.722314 572.390083,185.722314 L572.390083,185.722314 C580.797316,185.722314 587.613223,192.538221 587.613223,200.945455 L587.613223,200.945455 C587.613223,209.352688 580.797316,216.168595 572.390083,216.168595 L572.390083,216.168595 C563.98285,216.168595 557.166942,209.352688 557.166942,200.945455 L557.166942,200.945455 Z" id="Shape" fill="#DA5497"></path>
            <path d="M243.570248,231.391736 C243.570248,222.984502 250.386155,216.168595 258.793388,216.168595 L258.793388,216.168595 C267.200621,216.168595 274.016529,222.984502 274.016529,231.391736 L274.016529,231.391736 C274.016529,239.798969 267.200621,246.614876 258.793388,246.614876 L258.793388,246.614876 C250.386155,246.614876 243.570248,239.798969 243.570248,231.391736 L243.570248,231.391736 Z" id="Shape" fill="#4E80EE"></path>
            <path d="M339.983471,278.583471 C339.983471,271.016555 346.117585,264.882645 353.684298,264.882645 L353.684298,264.882645 C361.25101,264.882645 367.385124,271.016555 367.385124,278.583471 L367.385124,278.583471 C367.385124,286.150387 361.25101,292.284298 353.684298,292.284298 L353.684298,292.284298 C346.117585,292.284298 339.983471,286.150387 339.983471,278.583471 L339.983471,278.583471 Z" id="Shape" fill="#DA5497"></path>
        </g>
    </g>
</svg>