<?xml version="1.0" encoding="UTF-8"?>
<svg width="960px" height="869px" viewBox="0 0 960 869" version="1.1" xmlns="http://www.w3.org/2000/svg" xmlns:xlink="http://www.w3.org/1999/xlink">
    <title>linth4</title>
    <g id="linth4" stroke="none" stroke-width="1" fill="none" fill-rule="evenodd">
        <g id="Group-3-Copy" transform="translate(480.000000, 111.500000) rotate(-90.000000) translate(-480.000000, -111.500000) translate(-73.500000, -368.500000)" fill-rule="nonzero">
            <path d="M288,0 C394.03776,0 480,85.96224 480,192 L288,192 L288,0 Z" id="Shape" fill="#2D3652" transform="translate(384.000000, 96.000000) rotate(-270.000000) translate(-384.000000, -96.000000) "></path>
            <g id="Group-2" transform="translate(473.000000, 0.000000)">
                <path d="M0,481 L96.1666667,481 C149.277593,481 192.333333,437.929336 192.333333,384.8 L192.333333,384.8 L96.1666667,384.8 C43.05574,384.8 0,427.870664 0,481 L0,481 Z" id="Shape" fill="#2D3652"></path>
                <path d="M0,0 L0,192.4 C0,298.658672 86.11148,384.8 192.333333,384.8 L192.333333,384.8 L192.333333,192.4 C192.333333,86.141328 106.221853,0 0,0 L0,0 Z" id="Shape" fill="#DA5497"></path>
                <path d="M96.1666667,193.063448 L96.1666667,288.447069 C96.1666667,341.660866 139.222407,384.8 192.333333,384.8 L192.333333,384.8 L192.333333,289.416379 C192.333333,236.200656 149.277593,193.063448 96.1666667,193.063448 L96.1666667,193.063448 Z" id="Shape" fill="#2D3652"></path>
            </g>
            <path d="M665,675.5 C665,738.18378 614.18378,789 551.5,789 C488.81622,789 438,738.18378 438,675.5 C438,612.81622 488.81622,562 551.5,562 L665,562 L665,675.5 Z" id="Shape" fill="#F4F4F5"></path>
            <path d="M473,960 L473,960 C418.875176,960 375,916.124824 375,862 L375,862 L473,862 L473,960 Z" id="Shape" fill="#4E80EE"></path>
            <path d="M389,662 L293.485321,662 C240.198408,662 197,704.98112 197,758 L197,758 L292.514679,758 C345.803522,758 389,715.01888 389,662 L389,662 Z" id="Shape" fill="#DA5497"></path>
            <path d="M389,569 L293.485321,569 C240.198408,569 197,611.98112 197,665 L197,665 L292.514679,665 C345.803522,665 389,622.01888 389,569 L389,569 Z" id="Shape-Copy-4" fill="#DA5497" transform="translate(293.000000, 617.000000) scale(-1, 1) translate(-293.000000, -617.000000) "></path>
            <path d="M377,577 L473,577 C526.01888,577 569,534.01888 569,481 L569,481 L473,481 C419.98112,481 377,523.98112 377,577 L377,577 Z" id="Shape" fill="#4E80EE"></path>
            <path d="M377,192 C430.01888,192 473,234.98112 473,288 C473,341.01888 430.01888,384 377,384 C323.98112,384 281,341.01888 281,288 C281,234.98112 323.98112,192 377,192 Z" id="Shape" fill="#F4F4F5"></path>
            <path d="M323,289 C323,259.729606 346.729606,236 376,236 L376,236 C405.270394,236 429,259.729606 429,289 L429,289 C429,318.270394 405.270394,342 376,342 L376,342 C346.729606,342 323,318.270394 323,289 L323,289 Z" id="Shape" fill="#2D3652"></path>
            <path d="M424,732 C459.8982,732 489,761.1018 489,797 C489,832.8982 459.8982,862 424,862 C388.1018,862 359,832.8982 359,797 C359,761.1018 388.1018,732 424,732 Z" id="Shape-Copy-3" fill="#2D3652"></path>
            <path d="M387.4375,797.677083 C387.4375,777.858588 403.504421,761.791667 423.322917,761.791667 L423.322917,761.791667 C443.141412,761.791667 459.208333,777.858588 459.208333,797.677083 L459.208333,797.677083 C459.208333,817.495579 443.141412,833.5625 423.322917,833.5625 L423.322917,833.5625 C403.504421,833.5625 387.4375,817.495579 387.4375,797.677083 L387.4375,797.677083 Z" id="Shape-Copy-2" fill="#4E80EE"></path>
            <path d="M288,0 L288,96 C288,149.01888 245.019273,192 192,192 L192,192 L192,96 C192,42.98112 234.980747,0 288,0 L288,0 Z" id="Shape" fill="#4E80EE"></path>
            <path d="M144,-48 L144,47.5146788 C144,100.801592 101.01888,144 48,144 L48,144 L48,48.4853212 C48,-4.80352171 90.98112,-48 144,-48 L144,-48 Z" id="Shape" fill="#F4F4F5" transform="translate(96.000000, 48.000000) scale(1, -1) rotate(90.000000) translate(-96.000000, -48.000000) "></path>
            <path d="M640,913 C640,898.640296 651.640296,887 666,887 C680.359704,887 692,898.640296 692,913 C692,927.359704 680.359704,939 666,939 C651.640296,939 640,927.359704 640,913 Z" id="Shape" fill="#DA5497"></path>
            <path d="M405,438 C405,421.984267 417.984267,409 434,409 L434,409 C450.015733,409 463,421.984267 463,438 L463,438 C463,454.015733 450.015733,467 434,467 L434,467 C417.984267,467 405,454.015733 405,438 L405,438 Z" id="Shape" fill="#4E80EE"></path>
            <path d="M163,384 C163,367.984267 175.984267,355 192,355 L192,355 C208.015733,355 221,367.984267 221,384 L221,384 C221,400.015733 208.015733,413 192,413 L192,413 C175.984267,413 163,400.015733 163,384 L163,384 Z" id="Shape-Copy" fill="#4E80EE"></path>
            <path d="M588,528 C588,513.640296 599.640681,502 614,502 L614,502 C628.359319,502 640,513.640296 640,528 L640,528 C640,542.359704 628.359319,554 614,554 L614,554 C599.640681,554 588,542.359704 588,528 L588,528 Z" id="Shape" fill="#DA5497"></path>
        </g>
        <path d="M768,0 C874.03776,0 960,85.96224 960,192 L768,192 L768,0 Z" id="Shape" fill="#2D3652" fill-rule="nonzero" transform="translate(864.000000, 96.000000) scale(1, -1) rotate(-90.000000) translate(-864.000000, -96.000000) "></path>
    </g>
</svg>