<?xml version="1.0" encoding="UTF-8"?>
<svg width="960px" height="869px" viewBox="0 0 960 869" version="1.1" xmlns="http://www.w3.org/2000/svg" xmlns:xlink="http://www.w3.org/1999/xlink">
    <title>linth6</title>
    <g id="linth6" stroke="none" stroke-width="1" fill="none" fill-rule="evenodd">
        <g id="Group-4" transform="translate(0.000000, -184.000000)" fill-rule="nonzero">
            <g id="Group">
                <path d="M331.094276,460.193878 C331.094276,440.262718 326.813227,420.52583 318.492828,402.112425 C310.172429,383.69902 297.978227,366.967288 282.605519,352.873414 C267.232812,338.77954 248.982896,327.599756 228.898717,319.971519 C208.814538,312.344193 187.286788,308.418367 165.547138,308.418367 C143.807488,308.418367 122.279738,312.344193 102.195559,319.971519 C82.1113804,327.599756 63.861464,338.77954 48.4887567,352.873414 C33.1160495,366.967288 20.9218473,383.69902 12.6014481,402.112425 C4.28104899,420.52583 1.73372428e-12,440.262718 1.73372428e-12,460.193878 L165.547138,460.193878 L331.094276,460.193878 Z" id="Shape" fill="#4E80EE"></path>
                <path d="M2.26936027,310.346939 C22.2361904,310.346939 42.0084003,306.421113 60.4547591,298.793787 C78.9011178,291.166157 95.6627943,279.986676 109.781892,265.892802 C123.900989,251.799232 135.100781,235.0675 142.74267,216.653488 C150.384559,198.239172 154.316498,178.502892 154.316498,158.571429 C154.316498,138.639965 150.384559,118.903685 142.74267,100.489369 C135.100781,82.0750537 123.900989,65.343625 109.781892,51.2500547 C95.6627943,37.1561808 78.9011178,25.9765788 60.4547591,18.3491309 C42.0084003,10.7217134 22.2361904,6.79591837 2.26936027,6.79591837 L2.26936027,158.571429 L2.26936027,310.346939 Z" id="Shape" fill="#2D3652"></path>
                <path d="M331.326599,821.173469 C311.359769,821.173469 291.587559,817.248555 273.141201,809.620318 C254.694842,801.99208 237.933165,790.812296 223.814068,776.718422 C209.694971,762.624549 198.495179,745.892816 190.853289,727.479411 C183.2114,709.066007 179.279461,689.329119 179.279461,669.397959 L331.326599,669.397959 L331.326599,821.173469 Z" id="Shape" fill="#161616"></path>
                <path d="M0,489.306122 C19.9668302,489.306122 39.73904,493.231037 58.1853988,500.859274 C76.6317576,508.487511 93.3934341,519.667296 107.512531,533.761169 C121.631629,547.855043 132.831421,564.586776 140.47331,583.00018 C148.115199,601.413585 152.047138,621.150473 152.047138,641.081633 L0,641.081633 L0,489.306122 Z" id="Shape" fill="#2D3652"></path>
                <path d="M0,744.153061 C0,702.241772 34.0372723,668.265306 76.023569,668.265306 L152.047138,668.265306 L152.047138,820.040816 L76.023569,820.040816 C34.0372723,820.040816 0,786.064351 0,744.153061 L0,744.153061 Z" id="Shape" fill="#DA5497"></path>
                <path d="M179.279461,565.193878 C179.279461,607.105167 213.316734,641.081633 255.30303,641.081633 L331.326599,641.081633 L331.326599,489.306122 L255.30303,489.306122 C213.316734,489.306122 179.279461,523.282588 179.279461,565.193878 L179.279461,565.193878 Z" id="Shape" fill="#DA5497"></path>
                <ellipse id="Shape" fill="#DA5497" cx="270.621212" cy="255.75" rx="60.7053872" ry="60.5969388"></ellipse>
                <path d="M153.181818,927.642857 C153.181818,969.554147 119.144853,1003.53061 77.1582492,1003.53061 L1.13468013,1003.53061 L1.13468013,851.755102 L77.1582492,851.755102 C119.144853,851.755102 153.181818,885.731568 153.181818,927.642857 Z" id="Shape" fill="#4E80EE"></path>
                <path d="M270.119529,866.755102 C303.646188,866.755102 330.824916,893.885276 330.824916,927.352041 C330.824916,960.818806 303.646188,987.94898 270.119529,987.94898 C236.592869,987.94898 209.414141,960.818806 209.414141,927.352041 C209.414141,893.885276 236.592869,866.755102 270.119529,866.755102 Z" id="Shape" fill="#161616"></path>
            </g>
            <path d="M867,518 L1021,518 L1021,672 C1000.77641,672 980.750868,668.01756 962.066664,660.27752 C943.382768,652.53748 926.405808,641.19384 912.105676,626.8934 C897.805236,612.59296 886.461904,595.616 878.72248,576.93272 C870.983364,558.24944 867,538.22328 867,518 Z" id="Shape" fill="#2D3652"></path>
            <path d="M359,184 C379.09196,184 398.98808,187.94365 417.55004,195.6083 C436.112,203.27295 452.97872,214.5061 467.1863,228.66725 C481.39388,242.8284 492.66386,259.64 500.35364,278.1413 C508.04342,296.6426 512,316.4737 512,336.5 C512,356.5263 508.04342,376.3574 500.35364,394.8587 C492.66386,413.36 481.39388,430.1716 467.1863,444.33275 C452.97872,458.4939 436.112,469.72705 417.55004,477.3917 C398.98808,485.05635 379.09196,489 359,489 L359,184 Z" id="Shape" fill="#DA5497"></path>
            <path d="M634,818 C612.59484,818 591.39832,814.18565 571.62316,806.7723 C551.848,799.35895 533.87888,788.4941 518.7427,774.79725 C503.60652,761.1004 491.59994,744.84 483.40756,726.9453 C475.21518,709.0506 471,689.8697 471,670.5 C471,651.1303 475.21518,631.9494 483.40756,614.0547 C491.59994,596.16 503.60652,579.8996 518.7427,566.20275 C533.87888,552.5059 551.848,541.64105 571.62316,534.2277 C591.39832,526.81435 612.59484,523 634,523 L634,818 Z" id="Shape" fill="#4E80EE"></path>
            <path d="M690,310 L690,28 C708.516414,28 726.851464,31.64626 743.958433,38.73292 C761.065401,45.81958 776.608961,56.20564 789.702223,69.2989 C802.795202,82.39216 813.181264,97.936 820.267079,115.04212 C827.352894,132.14824 831,150.48388 831,169 C831,187.51612 827.352894,205.85176 820.267079,222.95788 C813.181264,240.064 802.795202,255.60784 789.701941,268.7011 C776.608961,281.79436 761.065401,292.18042 743.958433,299.26708 C726.851464,306.35374 708.516386,310 690,310 Z" id="Shape" fill="#DA5497"></path>
            <path d="M537,491 C537,470.77672 540.983364,450.75056 548.72248,432.06728 C556.461904,413.384 567.805236,396.40704 582.105676,382.1066 C596.405808,367.80616 613.382768,356.46252 632.066664,348.72248 C650.750868,340.98244 670.77672,337 691,337 C711.22328,337 731.24944,340.98244 749.93272,348.72248 C768.616,356.46252 785.59296,367.80616 799.8934,382.1066 C814.19384,396.40704 825.53748,413.384 833.27752,432.06728 C841.01756,450.75056 845,470.77672 845,491 L537,491 Z" id="Shape" fill="#2D3652"></path>
            <path d="M958,852 C958,871.960944 954.09514,891.726416 946.50588,910.167968 C938.91662,928.60952 927.79396,945.365696 913.7721,959.480112 C899.75024,973.594832 883.104,984.790848 864.78468,992.42976 C846.46536,1000.06837 826.82932,1004 807,1004 C787.17068,1004 767.53464,1000.06837 749.21532,992.42976 C730.896,984.790848 714.24976,973.594832 700.2279,959.480112 C686.20604,945.365696 675.08338,928.60952 667.49412,910.167968 C659.90486,891.726416 656,871.960944 656,852 L958,852 Z" id="Shape" fill="#2D3652"></path>
            <path d="M838,519 C838,538.960944 834.06928,558.726416 826.42976,577.167968 C818.79024,595.60952 807.59392,612.365696 793.4792,626.480112 C779.36448,640.594832 762.608,651.790848 744.16736,659.42976 C725.72672,667.068368 705.96064,671 686,671 L686,519 L838,519 Z" id="Shape" fill="#DA5497"></path>
            <path d="M512,852 C512,871.960944 508.06928,891.726416 500.42976,910.167968 C492.79024,928.60952 481.59392,945.365696 467.4792,959.480112 C453.36448,973.594832 436.608,984.790848 418.16736,992.42976 C399.72672,1000.06837 379.96064,1004 360,1004 L360,852 L512,852 Z" id="Shape-Copy-2" fill="#DA5497"></path>
            <path d="M748.5,698 C781.913227,698 809,725.086773 809,758.5 C809,791.913227 781.913227,819 748.5,819 C715.086773,819 688,791.913227 688,758.5 C688,725.086773 715.086773,698 748.5,698 Z" id="Shape" fill="#2D3652"></path>
            <path d="M913,667 C954.97328,667 989,701.026415 989,743 L989,819 L837,819 L837,743 C837,701.026415 871.02672,667 913,667 Z" id="Shape" fill="#E6E6E6"></path>
            <path d="M630,1001 C620.28232,1001 610.65936,999.09782 601.68168,995.40518 C592.704,991.71254 584.54624,986.29706 577.67312,979.47332 C570.80296,972.64664 565.35064,964.544 561.63288,955.62698 C557.91512,946.70996 556,937.15202 556,927.5 C556,917.84798 557.91512,908.29004 561.63288,899.37302 C565.35064,890.456 570.80296,882.35336 577.67312,875.52668 C584.54624,868.70294 592.704,863.28746 601.68168,859.59482 C610.65936,855.90218 620.28232,854 630,854 L630,1001 Z" id="Shape" fill="#161616"></path>
            <path d="M357,820 C366.98032,820 376.86336,818.03464 386.08368,814.21488 C395.304,810.39512 403.68224,804.79696 410.7396,797.7396 C417.79696,790.68224 423.39512,782.304 427.21488,773.08368 C431.03464,763.86336 433,753.98032 433,744 C433,734.01968 431.03464,724.13664 427.21488,714.91632 C423.39512,705.696 417.79696,697.31776 410.7396,690.2604 C403.68224,683.20304 395.304,677.60488 386.08368,673.78512 C376.86336,669.96536 366.98032,668 357,668 L357,744 L357,820 Z" id="Shape" fill="#4E80EE"></path>
            <path d="M419.5,514 C452.913227,514 480,541.086773 480,574.5 C480,607.913227 452.913227,635 419.5,635 C386.086773,635 359,607.913227 359,574.5 C359,541.086773 386.086773,514 419.5,514 Z" id="Shape" fill="#E6E6E6"></path>
            <path d="M595.5,196 C628.913227,196 656,223.086773 656,256.5 C656,289.913227 628.913227,317 595.5,317 C562.086773,317 535,289.913227 535,256.5 C535,223.086773 562.086773,196 595.5,196 Z" id="Shape-Copy" fill="#E6E6E6"></path>
            <path d="M1000,500 C978.3322,500 956.8756,495.7331 936.8578,487.4402 C916.84,479.1473 898.6504,466.9934 883.3285,451.6715 C868.0066,436.3496 855.8527,418.16 847.5598,398.1422 C839.2669,378.1244 835,356.6678 835,335 C835,313.3322 839.2669,291.8756 847.5598,271.8578 C855.8527,251.84 868.0066,233.6504 883.3285,218.3285 C898.6504,203.0066 916.84,190.8527 936.8578,182.5598 C956.8756,174.2669 978.3322,170 1000,170 L1000,500 Z" id="Shape" fill="#4E80EE"></path>
        </g>
    </g>
</svg>